<?xml version="1.0" encoding="UTF-8"?><svg id="Layer_1" xmlns="http://www.w3.org/2000/svg" viewBox="0 0 254 255.8"><defs><style>.cls-1{fill:#231f20;}</style></defs><path class="cls-1" d="M92.2,121.8h8.1l7.7-2.3,1.3-2.3v-3.5h-2.6l-1.3-3.2,3.9-1.6h12.2l7.7,2.6,7.7,1.6,5.1,2.3,3.6,4.8,3.5,1.6h4.5l-4.8-2.9-6.9-6.8,1.4-3.2,2.3-3.5,2.6,3.2,1.6-3.2,3.9-2.6,1.9,1.9-2.3,3.2-.6,2.3-.6,2.1,.3,1.8,3.2,3.2,1.6-5v-3.1l2.9-2.3,1.6,.3v8.7l2.6,1.3c1.9,1,5.5,4.5,5.5,4.5l3.2,2.6v6.8l1.9,2.9s2.6-.3,4.2,0l1.6,.3h4.2l-2.3,4.2s-.3,2.3-1.3,2.9-2.6,0-2.6,0l-3.9,.3h-2.3s-1.3-3.2-1.6-1.6-5.2,3.9-5.2,3.9l-2.9,2.6h-10.6l-1-4.5,1.3-2.9,1.6,2.6,1.3,2.3h4.5l2.3-.6,2.3-2.6,.3-1.6,1.9-2.6-4.8-1.3-2.9-1.3-3.2-3.2-1-1.9-1.9-1.6-1.9,.6h-2.6l-3.5-1-4.8-.6s-3.2-.6-5.5,0-5.5,.6-5.5,.6l-4.2-.6-5.5,.3-5.2,3.9-2.3,5.8s2.3,6.1,2.6,7.1,6.8,5.5,6.8,5.5l17.1,5.3,10.3-4h17.4l3.5,1.3s1.3,3.2,3.2,3.8,3.9,0,3.9,0l3.5,4.8,2.9,3.5,1.6,4.5s-1.9,2.3-1.9,3.5-.6,2.6-1,3.9,0-1.6-.3,1.3,0,4.2-1,6.1-2.3,3.2-2.6,4.2-2.9,2.9-2.9,2.9c0,0-1.6,1-2.6,1.3s-3.5-1.3-4.5,0-2.9,1.9-3.9,2.6l-1,.6s0,.3-3.2,3.2c-3.2,2.9-1,2.9-3.2,2.9s-5.8-.3-7.4,0-2.9-1.6-4.8,0,.3,0-1.9,1.6-1.6,2.3-4.2,2.6,0,0-3.9,0-6.8,1.3-7.7,0-5.8-1.9-5.8-1.9l-3.9-.3h-1.9l-3.5-2.6s-2.3-2.3-3.5-3.2-3.2-1.9-3.2-1.9c0,0-1.6-.6-2.6-1.3s-1.9-.3-3.5-1.3-3.5-2.3-3.5-2.3l-5.2-3.5s1.3-1,0-1.9,0-3.2,0-3.2c0,0,.3-1,1.6-1s2.9-.3,2.9-.3c0,0,2.3-1.9,3.2-2.6s1.6-.6,2.6-1.6,1.6-1.9,1.6-1.9c0,0,.6,.3,1.6-1.6l1-1.9s.3-.3,1-1.9l.6-1.6-1.3-1.6s-2.9-.6-4.2-.6,1.3,.3-1.3,0-4.2-1-5.2-1,.3,1.9-1,0-1-6.1-1-6.1l1.9-.3s5.5,.6,7.4,1.3-1.6-.3,1.9,.6,5.8,1,7.4,1.9,3.5,2.3,3.5,2.3l1.9,1.9,.3,3.2v2.3s-1,1.6-1.9,3.5-2.9,2.9-3.9,3.5-3.2,1.3-3.2,1.3l.3,3.5-1,1.9,4.5,2.3s1.3,1.3,2.9,1.9,2.6,.3,3.9,.6,4.8,1,4.8,1c0,0,1.9,0,3.5,.3s-1.9,0,1.6,.3-1,.3,3.5,.3,6.8-.6,8.1-.6h1.3l4.8-2.3s-.3-1,1.6-1.3,5.2-1.6,5.2-1.6c0,0,2.6-.6,3.5-1.3s2.3-1,2.3-1c0,0,2.3-.6,3.9-2.6s3.9-4.5,3.9-4.5c0,0,0-.6,.6-2.6s-.3,.3,.6-1.9l1-2.3,2.3,.6s.6,1.6,1,2.6,1,2.9,1,5.5-.3,.3,0,2.6l.3,2.3h0s1.9-.3,1.9-1.6v-1.3s-.6-.6-.6-3.2v-2.6s.3-.3,0-1.6,.6,1.3-.3-1.3-1-.3-1-2.6v-2.3s-.3-1-1.6-1.9,2.3,1-1.3-1-1.6-1.6-5.5-2.6-10-2.6-10-2.6l-7.7,1.9s-1.3,1-1.6,2.3,1-.3-.3,1.3-3.3,3.2-3.3,3.2c-2.8,.6,.5,.6-4.7,.6s-7.4-.3-7.4-.3l-1.6-1s-2.6-1-3.5-1.6-.3,.3-2.6-1.6,0-.6-2.3-1.9-5.8-2.6-5.8-2.6l-2.6-2.3s1.3-.4-1.6-2.5-5.8-2.7-5.8-2.7c0,0-2.6-.7-3.2-2.6s-1-3.2-1-4.5-1.3-.6,0-3.2,1.9-4.8,1.9-4.8c0,0,1.3-1.3,.3-3.2s-2.9-3.9-2.9-3.9l-3.5-.6s0-.3-1.9,0-4.1,1-4.1,1v4.5l-3.9,1.6v-3.2c0-1.3-1.6-1,0-2.6l1.6-1.6,.6-1.9s1.3-.6,1.9-1.6l.6-1,1.6-1.9Z"/><path class="cls-1" d="M85.9,77.2l-11.5,6.5-7.2,6.5-7.9,30.3-11.5,3.6-13.7-3.6v-8.7l7.2-2.2,7.2-4-.7-5-5.1-3.2-4.3,3.2-4.3,5-5.1,3.3-4.3,7.9v27.4s-5.8,2.9-7.9,0-7.9-5.8-7.9-5.8l-4.3-4.3-3.6-4.3s.7-.7,0-4.3-.7,1.4-.7-3.6v-10.5s.7-3.3,2.9-5.8,4.3-3.2,6.5-3.2h2.2l6.5-2.2,5.1-1.4,5.8-4.3v-4.3l2.9-4.3,.7-8.7,.7-3.6,9.7-6.5,4-3.6,2.9-3.6h3.6l1.4-4.3s.7-1.4,.7-4.3v-2.9l2.2-5.8h6.5l1.4-4.3,5.1,5.8,6.5-5.8-.7-10.8,9.4-7.9,6.5-8.7s5.8-2.9,7.9-3.6,5.1-3.6,7.2-4.3,1.4-1.4,5.8-2.2l4.3-.7h20.9l-5.1,8.7-14.6,2.9-10,.7-5.1,6.5-7.2,7.2-5.8,14.4,10.1-4.3,4.3-1.4,6.5,3.6,7.1,1.4,3.7,.7h15.9l10.1-4.3h13.7c3.6,0,5.8-.7,7.9-.7s12.3-1.4,12.3-1.4l10.8,2.9,4.3,8.7v11.5l5.8,.7,6.5,.7s3.6,0,3.6,2.9v2.9h0s2.2,2.2,5.1,2.2h2.9l2.9,6.4s-5.1,.8,0,3,3.6,.7,8.7,2.2l5.1,1.4s-2.2,0,0,2.9,3.6,6.5,3.6,6.5v4.3s-1.4,2.9,0,5.8l1.4,2.9-2.9,3.9h-3.6s-1.4,1.9,0,4.8l1.4,2.9s-5.1-3.6,0,0l5.1,3.6s3.6,0,5.1,3.6,.7-.7,1.4,3.6-2.2,6.5,0,10.1,1.4,9.1,2.9,11.4,1.4-2.7,1.4,2.3-6.5,0-6.5,0c0,0-5.1-1.3-5.1,2.2s-1.4,4.2,0,9.3,2.9,11.5,3.6,14.4,1.4,5.1,.7,7.9-2.9,5.8-2.9,5.8c0,0-.7-3.6-3.6-3.6h-2.9l-3.6,3.6v5.8c0,2.9,1.4-2.2,0,2.9s-3.6,9.4-3.6,9.4c0,0,.7,1.4-.7,3.6s-2.9,1.4-5.1,6.5-3.6,5.8-6.5,8.7-7.2,1.4-8.7,4.3-5.8,5.8-5.8,5.8c0,0-4.3,0-7.2,3.6s.7,0-2.9,3.6-4.3,5.8-9.4,7.9-13.7,2.2-13.7,2.2c0,0-1.4-3.6-5.8,0-4.3,3.6-13.7,3.6-13.7,3.6h-7.2c-2.2,0-15.9,.7-16.6,0s-9.4-2.9-12.3-2.9-14.4-2.9-14.4-2.9c0,0-5.8-2.9-7.9-4.3s6.5,2.2-2.2-1.4-2.2,0-8.7-3.6c-6.5-3.6-13.7-7.9-13.7-7.9,0,0-.7-.7-2.9-4.3s-2.9-1-5.8-7.4-4.3-7.1-7.2-9.9-5.8,0-8.7-7.2-5.1-10.1-5.1-13-1.4-4.3-.7-10.1c.7-5.8,0-7.2,1.4-10.1s2.2-3.6,1.4-10.8c-.7-7.2-4.3-16.6-1.4-20.9l2.9-4.3s7.2-6.2,10.1-6.3,7.2-3,7.2-3c0,0,7.9-6.5,7.9-8.7s2.6,4,0-2.2,2.2-8.4,2.2-8.4l7.2-8.9c4.3-2.9,10.1-11.5,10.1-11.5h11.5l10.1-7.2,10.7,5.1,8.1,5.1,3.6,5.1,1.4,7.9-1.4,4.6-3.6-4.6-8.1-5.1-7.1-2.2-10.1,2.2-3.6,5.1-7.2,4.6-10.1,7.7-5.1,14.6-6.5,12.1-3.6,15.9,4.3,16.6,7.2,14.4,10.8,15.2,13.7,13,13.7,5.6,20.2,3.8,21.6-3.8,23.8-13.5,10.1-13,7.2-13.7,1.4-13v-18.8l-1.4-17.3-6.5-16.6-8.7-13.7-7.9-9.4-10.8-7.9-18-8.7-13-2.2-20.2-.7-13-2.9,5.1-15.2,13.6-5.8-4.2-5.8-8.7,1.4-4.3,3.6-2.9,7.2-1.4,9.4-2.9,7.2-3.6,.7-5.1,5.1Z"/></svg>