<?xml version="1.0" standalone="no"?>
<!DOCTYPE svg PUBLIC "-//W3C//DTD SVG 20010904//EN"
 "http://www.w3.org/TR/2001/REC-SVG-20010904/DTD/svg10.dtd">
<svg version="1.0" xmlns="http://www.w3.org/2000/svg"
 width="512.000000pt" height="512.000000pt" viewBox="0 0 512.000000 512.000000"
 preserveAspectRatio="xMidYMid meet">
<metadata>
Created by potrace 1.14, written by Peter Selinger 2001-2017
</metadata>
<g transform="translate(0.000000,512.000000) scale(0.100000,-0.100000)"
fill="#000000" stroke="none">
<path d="M2304 5104 c-64 -13 -121 -39 -189 -84 -22 -15 -85 -48 -140 -74 -95
-45 -102 -51 -150 -118 -59 -82 -74 -99 -138 -153 -27 -22 -66 -55 -87 -73
l-38 -33 4 -72 c9 -150 10 -145 -32 -181 -22 -19 -50 -44 -64 -56 l-25 -22
-51 58 -52 58 -13 -42 c-12 -40 -14 -42 -53 -43 -23 -1 -51 0 -64 1 -32 2 -70
-85 -73 -171 -1 -35 -8 -79 -16 -96 -7 -18 -14 -35 -14 -38 -6 -39 -13 -45
-46 -43 -25 2 -39 -3 -49 -17 -36 -51 -117 -121 -215 -187 -120 -82 -117 -75
-125 -218 -5 -71 -11 -94 -37 -140 -17 -30 -32 -68 -32 -85 -1 -16 -3 -35 -3
-41 -2 -13 -108 -94 -123 -94 -5 0 -58 -16 -118 -35 -59 -19 -124 -35 -144
-35 -81 0 -146 -55 -183 -155 -10 -28 -12 -256 -2 -277 5 -9 10 -42 12 -73 3
-41 10 -63 27 -83 72 -79 131 -133 194 -174 39 -26 80 -58 92 -72 18 -21 32
-26 65 -26 24 1 54 7 68 15 l25 13 0 274 0 273 44 78 c32 58 54 84 84 104 23
14 74 57 113 97 67 68 83 82 111 99 8 5 32 -5 60 -24 27 -18 49 -33 50 -34 1
0 5 -23 8 -51 l6 -49 -43 -25 c-24 -13 -45 -25 -48 -25 -3 0 -16 -7 -30 -15
-14 -7 -56 -24 -95 -36 l-70 -22 -1 -86 0 -87 50 -14 c47 -13 135 -37 146 -40
67 -17 93 -15 192 16 57 17 107 35 111 39 5 4 28 83 52 176 24 93 48 183 55
199 6 17 10 30 8 30 -1 0 9 44 22 99 l25 98 74 66 c40 37 92 77 115 91 55 32
124 70 165 92 19 10 53 38 76 61 23 24 47 44 53 46 7 1 23 4 35 6 17 2 29 21
54 79 18 42 35 99 38 127 25 216 95 337 205 354 92 14 115 18 121 22 8 4 89
-100 89 -114 0 -5 -10 -13 -22 -17 -13 -4 -25 -8 -28 -9 -3 -1 -27 -12 -54
-24 -27 -12 -50 -22 -51 -22 -1 0 -20 -7 -41 -16 -22 -9 -40 -16 -42 -15 -16
9 -87 -159 -108 -258 -3 -13 -9 -32 -15 -43 -12 -22 -23 -17 136 -52 94 -20
159 -27 300 -32 181 -5 239 -9 285 -19 13 -2 42 -7 65 -11 130 -19 129 -19
380 -141 109 -53 195 -106 203 -125 2 -5 8 -8 13 -8 14 0 125 -87 142 -112 8
-13 34 -43 56 -68 23 -25 68 -85 101 -135 33 -49 63 -94 68 -100 35 -43 91
-156 146 -296 52 -132 67 -180 70 -235 3 -38 8 -109 12 -159 9 -111 10 -487 1
-575 -4 -36 -9 -90 -12 -120 -5 -41 -24 -88 -78 -193 -40 -76 -82 -150 -94
-163 -13 -14 -23 -29 -23 -34 0 -4 -4 -10 -8 -12 -5 -1 -28 -30 -53 -63 -49
-67 -78 -102 -96 -119 -25 -23 -42 -36 -47 -36 -3 0 -101 -54 -217 -120 -116
-66 -223 -122 -237 -125 -15 -3 -42 -8 -61 -11 -18 -3 -43 -8 -55 -10 -46 -9
-133 -24 -171 -30 -22 -3 -56 -9 -75 -13 -44 -10 -43 -10 -355 49 -87 17 -262
77 -317 110 -10 5 -23 10 -30 10 -13 0 -51 34 -218 194 -118 112 -277 338
-374 532 -41 82 -77 160 -80 174 -2 14 -7 32 -10 40 -3 8 -8 26 -10 40 -3 14
-16 68 -30 121 -14 52 -23 105 -21 117 3 12 7 31 10 43 2 11 7 30 11 41 3 11
7 30 9 41 1 12 8 45 15 72 6 28 14 59 16 71 2 11 19 49 38 85 19 35 49 91 67
124 17 33 53 121 80 196 26 75 53 145 59 155 13 20 185 148 285 212 38 24 73
58 95 90 19 29 42 52 50 53 8 0 22 2 30 4 8 2 29 7 45 10 17 3 47 11 69 16 31
8 51 6 110 -11 87 -27 235 -118 267 -165 34 -50 45 -50 59 -1 10 35 9 59 -4
126 -9 46 -19 86 -24 89 -4 3 -18 23 -30 43 -28 45 -139 118 -294 193 l-112
54 -81 -56 c-44 -31 -82 -59 -85 -63 -14 -20 -55 -26 -156 -25 l-110 1 -45
-60 c-24 -33 -75 -92 -114 -131 -80 -81 -135 -144 -135 -153 0 -4 -25 -31 -55
-61 -30 -30 -55 -63 -56 -75 -2 -39 2 -71 12 -97 15 -38 -6 -73 -91 -157 -76
-75 -156 -117 -260 -136 -8 -2 -103 -69 -117 -82 -7 -7 -16 -14 -21 -16 -11
-4 -86 -118 -91 -138 -9 -33 -1 -131 19 -230 12 -58 24 -146 27 -195 5 -82 3
-96 -21 -152 -25 -60 -41 -183 -38 -292 2 -72 25 -187 47 -235 13 -28 40 -87
60 -131 44 -97 64 -120 124 -140 66 -21 139 -100 194 -205 25 -49 66 -108 95
-138 28 -29 58 -67 67 -85 10 -22 35 -44 77 -67 33 -19 73 -42 87 -50 86 -51
202 -109 236 -120 22 -7 44 -16 49 -21 6 -5 17 -9 26 -9 10 0 28 -9 41 -21 40
-35 160 -92 224 -107 33 -7 69 -15 80 -18 11 -3 31 -6 45 -8 14 -2 36 -7 50
-10 14 -3 48 -8 75 -11 70 -7 94 -12 169 -35 60 -19 89 -21 328 -19 311 3 372
12 469 70 60 36 69 39 93 28 14 -7 26 -16 26 -20 0 -8 18 -7 135 6 28 3 82 15
120 27 62 20 78 30 145 97 42 42 93 98 114 125 38 47 87 77 133 82 29 3 60 31
149 129 12 13 48 31 81 40 77 22 146 87 198 188 21 40 58 93 83 119 34 35 46
56 48 83 2 19 10 50 18 68 22 45 65 175 60 179 -2 3 -4 35 -5 73 -2 66 -1 68
37 104 33 32 43 37 78 34 32 -2 47 -10 68 -35 l27 -31 10 25 c5 14 14 29 20
32 12 8 26 81 23 120 -1 16 -12 66 -23 110 -12 45 -23 89 -25 100 -2 10 -15
64 -30 120 -20 78 -24 113 -19 156 3 30 6 65 6 76 -1 54 70 66 141 25 52 -31
82 -25 86 16 2 22 -3 40 -17 54 -12 13 -22 42 -26 82 -4 34 -14 80 -22 102
-31 86 -32 97 -21 173 11 74 10 79 -15 129 -26 51 -45 68 -98 88 -93 35 -165
129 -149 195 5 20 13 26 43 28 31 3 43 11 66 43 l29 39 -20 38 c-16 32 -18 49
-12 128 7 98 0 120 -64 216 -13 21 -22 44 -19 52 5 11 -5 18 -36 26 -23 6 -55
15 -72 20 -16 5 -50 12 -75 15 -57 9 -120 41 -120 60 0 8 6 15 14 15 26 0 25
14 -4 78 -29 60 -30 62 -67 61 -76 -1 -125 27 -123 69 4 51 0 62 -28 76 -15 8
-54 16 -87 19 -135 12 -195 20 -196 26 -1 3 -2 56 -3 116 -2 108 -3 112 -46
198 -34 70 -48 89 -69 93 -14 3 -33 8 -41 11 -52 17 -155 41 -169 38 -18 -3
-119 -15 -166 -20 -16 -2 -66 -6 -110 -11 -44 -4 -147 -8 -230 -9 -162 -1
-168 -2 -265 -49 l-65 -31 -195 0 c-107 0 -208 3 -224 7 -16 4 -55 12 -85 19
-31 6 -86 27 -122 47 l-66 35 -59 -20 c-32 -12 -96 -37 -141 -57 -46 -19 -83
-33 -83 -31 0 3 25 66 55 141 53 134 56 138 142 228 49 50 104 112 122 139 21
28 43 48 55 48 12 1 39 3 61 5 103 7 172 16 213 28 9 3 35 8 58 11 22 3 55 10
73 15 36 10 36 10 55 10 11 0 116 158 116 175 0 9 -444 0 -496 -11z"/>
<path d="M3052 3030 c-23 -17 -42 -36 -42 -43 0 -27 -21 -36 -41 -16 -10 10
-19 24 -19 29 0 21 -19 9 -32 -20 -7 -16 -16 -30 -20 -30 -4 0 -12 -18 -19
-39 l-12 -40 62 -60 c33 -34 83 -75 111 -92 27 -17 50 -32 50 -34 0 -2 -21 -3
-47 -1 -64 3 -105 26 -144 80 -36 52 -104 88 -195 106 -33 6 -68 13 -79 15
-11 3 -53 16 -94 30 -64 21 -92 25 -198 25 -88 0 -134 -4 -162 -16 -37 -15
-38 -16 -28 -45 6 -16 15 -30 19 -30 4 -1 13 -3 18 -4 6 -1 15 -3 20 -4 24 -3
-1 -115 -27 -117 -4 0 -33 -8 -63 -18 -33 -11 -94 -20 -155 -22 -90 -3 -102
-5 -118 -26 -10 -13 -27 -33 -38 -45 -12 -13 -33 -41 -49 -64 -23 -35 -26 -49
-22 -88 2 -25 6 -47 7 -49 1 -1 18 5 38 13 35 14 37 18 37 60 0 44 1 44 42 56
34 9 145 6 154 -4 1 -1 15 -24 32 -51 l31 -48 -21 -55 c-11 -30 -26 -66 -33
-80 -7 -13 -12 -30 -11 -36 20 -103 29 -128 57 -152 17 -14 37 -25 45 -25 35
0 144 -70 144 -92 0 -19 38 -47 110 -81 41 -19 84 -45 94 -56 11 -12 54 -38
95 -58 69 -32 85 -36 176 -38 55 -2 109 2 120 7 34 18 85 71 85 90 0 19 30 50
52 54 7 1 42 9 76 18 50 13 71 15 96 6 18 -6 42 -13 52 -15 110 -25 155 -40
198 -66 68 -42 79 -55 81 -97 1 -21 7 -47 13 -59 7 -12 12 -55 12 -95 0 -40 4
-79 9 -87 12 -18 3 -48 -16 -56 -9 -3 -17 -4 -19 -3 -1 2 -5 39 -8 83 -8 119
-24 167 -62 179 -16 5 -23 0 -33 -21 -7 -16 -15 -38 -17 -50 -12 -65 -90 -164
-151 -192 -72 -33 -92 -42 -149 -61 -34 -11 -72 -23 -85 -25 -13 -3 -28 -11
-34 -18 -5 -7 -32 -23 -60 -36 -44 -21 -65 -24 -185 -25 -122 -1 -189 5 -260
20 -14 4 -48 9 -76 13 -29 4 -69 18 -90 32 -22 14 -56 33 -76 42 -35 17 -36
19 -26 47 5 17 7 41 4 54 -5 21 0 26 32 39 58 23 101 64 127 120 28 62 25 130
-8 165 -32 35 -103 74 -150 83 -79 16 -92 19 -117 28 -35 13 -144 30 -166 26
-11 -2 -21 -4 -24 -4 -9 -2 2 -96 14 -111 6 -8 20 -16 31 -16 92 -6 202 -27
218 -43 17 -17 17 -20 -13 -77 -46 -88 -182 -204 -239 -204 -52 0 -81 -42 -58
-85 6 -11 10 -25 9 -31 -1 -6 17 -24 40 -40 24 -16 45 -31 48 -34 9 -9 64 -41
100 -57 109 -50 161 -80 210 -122 73 -63 100 -79 132 -79 61 1 145 -15 176
-33 29 -17 48 -18 153 -14 130 5 131 5 182 51 44 41 67 53 92 47 11 -3 64 -6
118 -7 76 -2 100 1 106 12 17 30 108 115 142 132 19 10 41 26 49 34 10 13 24
15 59 10 61 -8 101 19 163 111 40 60 48 79 52 130 3 33 9 73 15 88 6 15 12 41
13 57 1 17 5 30 8 30 3 0 11 9 18 21 11 17 10 28 -2 67 -9 26 -26 58 -39 72
-12 14 -41 50 -64 81 -39 52 -44 56 -83 56 -42 0 -90 32 -90 60 0 7 -17 20
-37 28 -28 12 -78 15 -217 16 l-181 0 -90 -36 c-49 -20 -99 -37 -110 -37 -11
0 -81 19 -155 42 -74 23 -149 46 -166 51 -17 5 -41 18 -54 29 -13 11 -26 20
-29 20 -20 0 -82 76 -92 113 -6 23 -15 47 -20 53 -33 40 13 149 85 202 48 35
55 37 131 38 44 1 89 -2 100 -6 11 -4 51 -2 88 5 37 6 82 10 100 9 75 -6 179
-22 211 -33 23 -8 53 -7 76 3 15 6 70 -36 70 -55 0 -11 43 -53 75 -75 11 -7
43 -20 70 -29 28 -9 56 -18 64 -21 11 -3 9 -10 -8 -27 -11 -13 -21 -30 -21
-39 0 -19 -48 -71 -69 -76 -9 -1 -38 -4 -65 -6 -48 -2 -48 -2 -79 47 l-30 49
-14 -26 c-9 -18 -11 -38 -6 -64 4 -20 6 -40 5 -44 -3 -10 -6 -10 116 -12 71
-1 107 2 113 11 6 6 34 26 62 44 29 18 64 43 79 57 25 23 27 23 36 5 9 -16 22
-18 97 -17 l87 1 34 68 c19 38 32 70 30 72 -3 4 -88 10 -158 12 -50 1 -73 43
-72 128 1 69 13 53 -121 168 -16 15 -47 35 -67 46 l-38 19 0 90 c0 99 -3 102
-56 69 -27 -16 -34 -27 -34 -52 0 -18 -5 -50 -12 -72 -6 -22 -11 -43 -10 -47
4 -17 -16 -7 -46 23 -18 17 -32 41 -32 53 0 37 25 104 47 129 19 23 20 27 7
46 -19 27 -23 27 -72 -9z"/>
</g>
</svg>
